<?xml version="1.0" standalone="no"?>
<!DOCTYPE svg PUBLIC "-//W3C//DTD SVG 20010904//EN"
 "http://www.w3.org/TR/2001/REC-SVG-20010904/DTD/svg10.dtd">
<svg version="1.0" xmlns="http://www.w3.org/2000/svg"
 width="928.000000pt" height="928.000000pt" viewBox="0 0 928.000000 928.000000"
 preserveAspectRatio="xMidYMid meet">
<metadata>
Created by potrace 1.14, written by Peter Selinger 2001-2017
</metadata>
<g transform="translate(0.000000,928.000000) scale(0.100000,-0.100000)"
fill="#000000" stroke="none">
<path d="M3218 9275 c-2 -1 -43 -6 -92 -9 -49 -4 -106 -9 -126 -12 -20 -3 -50
-6 -66 -8 -16 -1 -34 -5 -40 -9 -6 -3 -21 -5 -32 -2 -12 2 -24 -1 -27 -6 -4
-5 -9 -7 -13 -5 -6 3 -103 -14 -222 -40 -124 -27 -434 -125 -496 -157 -17 -9
-34 -13 -38 -10 -3 4 -6 2 -6 -4 0 -5 -6 -10 -12 -10 -7 0 -44 -15 -83 -32
-38 -18 -71 -32 -72 -32 -2 0 -18 -7 -35 -17 -18 -10 -69 -38 -113 -62 -44
-24 -89 -48 -100 -54 -11 -6 -26 -18 -33 -26 -12 -13 -13 -13 -7 0 4 10 2 9
-8 -2 -8 -10 -17 -18 -21 -18 -8 0 -150 -95 -172 -115 -7 -5 -24 -19 -40 -30
-180 -130 -401 -351 -547 -546 -73 -98 -82 -111 -97 -138 -8 -14 -21 -30 -27
-34 -7 -4 -13 -12 -13 -18 0 -5 -16 -36 -37 -67 -36 -57 -195 -362 -188 -362
2 0 -9 -30 -26 -67 -29 -65 -114 -307 -125 -354 -6 -30 -9 -40 -17 -59 -29
-75 -112 -504 -123 -635 -2 -27 -6 -63 -9 -80 -3 -16 -7 -59 -9 -95 -3 -36 -5
-65 -6 -65 -7 0 -14 -323 -14 -610 1 -394 8 -562 38 -830 2 -22 7 -67 11 -100
6 -60 21 -167 29 -215 3 -14 10 -61 16 -105 7 -44 14 -87 17 -95 3 -8 7 -22 8
-30 1 -8 5 -33 10 -55 4 -22 9 -49 10 -60 2 -11 8 -38 13 -60 6 -22 13 -51 16
-65 20 -92 27 -122 41 -175 9 -33 18 -67 20 -75 2 -8 13 -46 25 -85 12 -38 23
-77 25 -85 2 -8 13 -41 24 -72 11 -32 18 -58 15 -58 -2 0 3 -14 12 -31 8 -17
17 -39 19 -49 4 -19 100 -265 131 -335 10 -22 18 -42 19 -45 1 -3 14 -32 30
-65 15 -33 29 -64 31 -70 1 -5 32 -66 68 -134 36 -68 66 -128 66 -132 0 -5 5
-9 10 -9 6 0 10 -4 10 -9 0 -14 169 -294 203 -336 33 -41 97 -137 97 -145 0
-5 4 -10 8 -10 5 0 24 -21 43 -47 34 -49 165 -207 229 -277 67 -75 276 -281
349 -346 41 -36 79 -69 85 -75 6 -5 32 -26 56 -45 25 -19 52 -40 60 -47 8 -6
41 -32 72 -57 31 -25 61 -46 67 -46 6 0 11 -4 11 -8 0 -4 15 -16 33 -27 17
-10 34 -21 37 -25 16 -21 351 -228 435 -270 17 -8 32 -17 35 -21 3 -3 28 -15
55 -28 28 -13 58 -30 69 -40 10 -9 20 -15 22 -13 2 1 44 -16 92 -39 157 -74
513 -218 577 -234 6 -1 18 -5 27 -9 9 -4 22 -9 30 -10 7 -2 20 -5 28 -8 8 -3
49 -16 90 -28 41 -12 82 -25 90 -28 8 -3 23 -6 32 -7 9 -1 30 -7 45 -13 24 -9
61 -19 98 -27 6 -2 49 -12 96 -24 48 -12 97 -24 110 -26 20 -4 50 -11 92 -21
4 -1 8 -2 10 -4 1 -1 13 -3 27 -4 21 -3 116 -19 245 -43 17 -3 41 -7 55 -8 14
-2 39 -7 55 -10 31 -7 54 -9 185 -22 92 -9 431 -9 520 0 94 10 210 27 250 37
19 5 46 11 60 14 14 3 39 8 55 11 59 12 208 56 273 81 37 14 74 27 82 29 8 2
16 4 18 5 1 2 5 3 10 5 4 1 19 7 35 13 15 7 39 17 55 24 15 6 30 11 35 10 4
-1 7 2 7 7 0 5 17 15 38 21 20 7 44 18 52 26 8 7 20 13 25 14 13 2 79 32 85
39 3 4 27 17 53 31 64 34 94 51 147 84 103 65 185 121 188 129 2 4 10 7 17 7
7 0 16 7 19 16 4 9 9 14 12 11 3 -3 17 5 30 19 14 13 38 31 54 39 17 9 30 20
30 25 0 6 5 10 10 10 9 0 47 30 86 68 7 6 15 12 18 12 3 0 16 10 29 22 12 13
56 52 97 88 131 114 365 352 510 520 30 35 63 72 73 82 9 10 17 20 17 23 0 5
39 51 68 81 6 7 12 16 12 20 0 3 8 14 18 23 10 9 29 32 42 51 14 19 32 44 42
55 9 11 35 45 57 75 22 30 44 60 49 65 4 6 17 25 27 43 11 17 23 32 27 32 4 0
8 5 8 10 0 6 4 16 10 23 47 57 60 76 60 86 0 6 5 11 11 11 5 0 8 4 5 9 -4 5
-2 11 2 13 5 1 36 44 68 93 32 50 64 93 69 97 6 4 7 8 3 8 -7 0 29 59 52 87 5
7 10 17 10 23 0 5 5 10 10 10 6 0 10 4 10 10 0 5 18 39 40 75 22 36 40 70 40
75 0 6 3 10 8 10 4 0 13 15 21 32 8 18 17 35 21 38 4 3 31 50 60 105 74 140
74 139 83 146 5 3 8 9 8 13 -1 10 103 221 114 228 6 4 7 8 3 8 -4 0 5 26 19
58 13 31 31 71 38 87 17 40 114 320 119 348 3 12 13 49 22 82 24 91 52 212 59
262 2 12 6 34 9 50 12 57 18 99 21 133 2 19 4 35 5 35 1 0 3 14 4 30 2 17 7
73 12 125 10 111 11 515 2 610 -18 175 -25 234 -33 285 -7 49 -32 192 -39 220
-2 11 -12 54 -21 95 -16 71 -26 108 -74 272 -29 98 -116 325 -161 424 -22 47
-40 88 -40 91 0 2 -9 18 -21 34 -11 16 -17 29 -14 29 4 0 1 10 -7 23 -8 12
-32 54 -53 92 -21 39 -44 77 -51 86 -8 9 -12 18 -9 21 3 3 -4 13 -15 23 -11
10 -20 22 -20 28 0 23 -265 389 -341 472 -11 11 -40 45 -66 75 -96 109 -313
320 -443 429 -65 55 -77 64 -109 89 -19 15 -45 37 -59 50 -14 12 -28 22 -32
22 -4 0 -18 9 -31 21 -13 12 -44 35 -69 52 -25 17 -47 33 -50 36 -12 14 -70
51 -80 51 -5 0 -10 4 -10 8 0 5 -12 15 -27 23 -16 8 -30 16 -33 19 -6 8 -231
145 -290 178 -112 63 -255 138 -365 191 -143 70 -238 115 -245 116 -3 1 -23 9
-45 19 -56 25 -89 39 -95 41 -3 1 -22 9 -44 18 -21 9 -41 17 -43 17 -3 0 -19
6 -36 14 -18 8 -70 29 -117 46 -47 17 -94 35 -105 40 -11 4 -33 13 -50 18 -16
6 -39 13 -50 18 -11 4 -24 8 -30 10 -5 2 -44 15 -85 30 -41 14 -84 28 -95 29
-11 2 -21 4 -22 5 -2 2 -6 3 -10 5 -5 1 -21 7 -36 13 -15 7 -40 14 -55 18 -15
3 -36 9 -47 14 -19 8 -69 21 -80 20 -3 0 -21 6 -40 14 -20 9 -39 15 -43 16 -4
0 -25 5 -47 11 -22 6 -45 12 -52 13 -7 1 -16 5 -19 9 -4 4 -19 7 -34 7 -15 0
-30 3 -34 7 -3 4 -12 8 -19 9 -7 1 -53 12 -102 24 -50 13 -97 24 -105 25 -9 0
-20 4 -25 7 -9 5 -63 17 -105 24 -8 1 -24 5 -35 8 -15 4 -163 39 -190 45 -3 1
-7 2 -10 2 -3 1 -13 2 -22 3 -10 1 -43 7 -73 14 -109 23 -311 59 -372 66 -115
14 -136 16 -188 22 -57 6 -556 14 -562 9z"/>
</g>
</svg>
